{"title":"Knockaround.Guys.2001.SWESUB.DVDRip.XviD.AC3.(5.1).-Zen_Bud","uid":5635033,"size":1468424192,"categoryP":"video","categoryS":"movies","magnet":"?xt=urn:btih:23605642cea1848c0d938af2fe0e24d63ffbdbd6&amp;dn=Knockaround.Guys.2001.SWESUB.DVDRip.XviD.AC3.%285.1%29.-Zen_Bud&amp;tr=udp%3A%2F%2Ftracker.openbittorrent.com%3A80&amp;tr=udp%3A%2F%2Fopen.demonii.com%3A1337&amp;tr=udp%3A%2F%2Ftracker.coppersurfer.tk%3A6969&amp;tr=udp%3A%2F%2Fexodus.desync.com%3A6969","seeders":1,"leechers":0,"uploader":"Zen_Bud","files":-1,"time":1276851783,"description":"General\nComplete name                    : Knockaround.Guys.avi\nFormat                           : AVI\nFile size                        : 1.37 GiB\nDuration                         : 1h 31mn\nOverall bit rate                 : 2 136 Kbps\nWriting application              : VirtualDubMod 1.5.10.2 (build 2542/release)\nWriting library                  : VirtualDubMod build 2542/release\n\nVideo\nID                               : 0\nFormat                           : MPEG-4 Visual\nCodec ID/Hint                    : XviD\nDuration                         : 1h 31mn\nBit rate                         : 1 680 Kbps\nWidth                            : 720 pixels\nHeight                           : 420 pixels\nDisplay aspect ratio             : 16:9\nStream size                      : 1.08 GiB (79%)\nWriting library                  : XviD 1.2.1 (UTC 2008-12-04)\n\nAudio\n\nFormat                           : AC-3\nCodec ID                         : 2000\nDuration                         : 1h 31mn\nBit rate                         : 448 Kbps\nChannel(s)                       : 6 channels\nChannel positions                : Front: L C R, Side: L R, LFE\nSampling rate                    : 48.0 KHz\nStream size                      : 294 MiB (21%)\n\n\n","torrent":{"xt":"urn:btih:23605642cea1848c0d938af2fe0e24d63ffbdbd6","amp;dn":"Knockaround.Guys.2001.SWESUB.DVDRip.XviD.AC3.%285.1%29.-Zen_Bud","amp;tr":["udp%3A%2F%2Ftracker.openbittorrent.com%3A80","udp%3A%2F%2Fopen.demonii.com%3A1337","udp%3A%2F%2Ftracker.coppersurfer.tk%3A6969","udp%3A%2F%2Fexodus.desync.com%3A6969"],"infoHash":"23605642cea1848c0d938af2fe0e24d63ffbdbd6","infoHashBuffer":{"type":"Buffer","data":[35,96,86,66,206,161,132,140,13,147,138,242,254,14,36,214,63,251,219,214]},"announce":[],"urlList":[]}}